<?xml version="1.0" encoding="utf-8"?>
<!-- Generator: Adobe Illustrator 19.1.0, SVG Export Plug-In . SVG Version: 6.00 Build 0)  -->
<svg version="1.1" id="logo-svg-werecruit" xmlns="http://www.w3.org/2000/svg" xmlns:xlink="http://www.w3.org/1999/xlink" x="0px"
	 y="0px" viewBox="0 0 228.7 48.7" style="enable-background:new 0 0 228.7 48.7;" xml:space="preserve">
<style type="text/css">
	.st0{fill:#FFFFFF;}
</style>
<g id="wio-path-gray">
	<path id="wio-path-gray-04" class="st0" d="M195.5,44.9h3v3.4h-3V44.9z"/>
	<path id="wio-path-gray-03" class="st0" d="M206.3,25.1v2.2h-2 M204.5,31.6h1.6v16.7h-1.6V31.6z"/>
	<path id="wio-path-gray-02" class="st0" d="M211.5,40.1L211.5,40.1c0-4.8,3.6-8.8,8.6-8.8c5,0,8.6,4,8.6,8.7V40
		c0,4.7-3.6,8.8-8.6,8.8C215.1,48.7,211.5,44.7,211.5,40.1z M226.9,40.1L226.9,40.1c0-4.1-3-7.3-6.9-7.3c-4,0-6.8,3.2-6.8,7.2V40
		c0,4,3,7.2,6.9,7.2C224.1,47.2,226.9,44,226.9,40.1z"/>
	<path id="wio-path-gray-01" class="st0" d="M26.6,14.5L13.4,39.9L0.3,11.7c-0.8-1.6,0-3.6,1.6-4.3c1.6-0.7,3.6,0,4.4,1.6l7.5,16
		L26.3,0.9l7.1,12L26.6,14.5z"/>
</g>
<g id="wio-path-text">
	<path id="wio-path-text-w" class="st0" d="M78.3,10.8h4.1l3.5,11.9l3.8-11.9h3.4l3.9,11.9l3.5-11.9h4l-5.7,17.4h-3.5l-3.9-11.8
		l-3.9,11.8h-3.5L78.3,10.8z"/>
	<path id="wio-path-text-e2" class="st0" d="M106.9,19.5L106.9,19.5c0-5,3.5-9.1,8.5-9.1c5.5,0,8.3,4.3,8.3,9.3c0,0.4,0,0.7-0.1,1.1
		h-12.7c0.4,2.8,2.4,4.4,5,4.4c1.9,0,3.3-0.7,4.7-2.1l2.3,2.1c-1.6,2-3.9,3.2-7.1,3.2C110.8,28.5,106.9,24.9,106.9,19.5z
		 M119.7,18.3c-0.3-2.6-1.8-4.6-4.4-4.6c-2.4,0-4.1,1.9-4.5,4.6H119.7z"/>
	<path id="wio-path-text-r2" class="st0" d="M83.5,31h4v3.9c1.1-2.6,3.1-4.4,6.1-4.2v4.2h-0.2c-3.5,0-5.9,2.3-5.9,6.9v6.6h-4V31z"/>
	<path id="wio-path-text-e1" class="st0" d="M96.4,39.8L96.4,39.8c0-5,3.5-9.1,8.5-9.1c5.5,0,8.3,4.3,8.3,9.3c0,0.4,0,0.7-0.1,1.1
		h-12.7c0.4,2.8,2.4,4.4,5,4.4c1.9,0,3.3-0.7,4.7-2.1l2.3,2.1c-1.6,2-3.9,3.2-7.1,3.2C100.2,48.7,96.4,45.1,96.4,39.8z M109.2,38.5
		c-0.3-2.6-1.8-4.6-4.4-4.6c-2.4,0-4.1,1.9-4.5,4.6H109.2z"/>
	<path id="wio-path-text-c" class="st0" d="M116.7,39.8L116.7,39.8c0-5,3.8-9.1,9-9.1c3.3,0,5.3,1.2,6.9,3l-2.5,2.7
		c-1.2-1.3-2.5-2.2-4.5-2.2c-2.9,0-5,2.5-5,5.5v0.1c0,3.1,2.1,5.6,5.2,5.6c1.9,0,3.2-0.9,4.5-2.2l2.4,2.4c-1.7,1.9-3.7,3.2-7.1,3.2
		C120.5,48.7,116.7,44.7,116.7,39.8z"/>
	<path id="wio-path-text-r1" class="st0" d="M136.7,31h4v3.9c1.1-2.6,3.1-4.4,6.1-4.2v4.2h-0.2c-3.5,0-5.9,2.3-5.9,6.9v6.6h-4V31z"
		/>
	<path id="wio-path-text-u" class="st0" d="M150.5,42.1V31h4v9.8c0,2.7,1.3,4.2,3.7,4.2c2.3,0,3.9-1.6,3.9-4.3V31h4v17.3h-4v-2.7
		c-1.1,1.6-2.7,3-5.4,3C152.7,48.7,150.5,46.1,150.5,42.1z"/>
	<path id="wio-path-text-i" class="st0" d="M175.8,24.6v3.8h-4.3 M171.7,31h4v17.3h-4V31z"/>
	<path id="wio-path-text-7" class="st0" d="M182,43.6v-9.1h-2.2V31h2.2v-4.8h4V31h4.7v3.4h-4.7v8.5c0,1.5,0.8,2.2,2.1,2.2
		c0.9,0,1.7-0.2,2.5-0.6v3.2c-1,0.6-2.1,0.9-3.6,0.9C184,48.6,182,47.4,182,43.6z"/>
</g>
<g id="wio-path-square">
	<path id="wio-path-square-01" class="st0" d="M58.8,48.7H26.1c-1.4,0-2.6-1.2-2.6-2.6V13.9c0-1.4,1.2-2.6,2.6-2.6h32.7
		c1.4,0,2.6,1.2,2.6,2.6v32.2C61.4,47.5,60.2,48.7,58.8,48.7z M26.8,45.4h31.4V14.5H26.8V45.4z"/>
</g>
<g id="wio-path-check">
	<path id="wio-path-check-01" class="st0" d="M42.8,41.8L32.1,23.6c-0.9-1.5-0.4-3.5,1.2-4.4c1.6-0.9,3.6-0.4,4.5,1.2l5.4,9.2
		L62.3,1.4c1-1.5,3.1-1.9,4.6-0.9c1.5,1,1.9,3,0.9,4.5L42.8,41.8z"/>
</g>
</svg>
